<svg class="icon" viewBox="0 0 1024 1024" xmlns="http://www.w3.org/2000/svg" width="500" height="500"><path d="M521.6 442.4V608h271.2c-12 69.6-81.6 206.4-271.2 206.4C358.4 814.4 224 680 224 512s134.4-302.4 297.6-302.4c93.6 0 156 40.8 192 74.4l129.6-124.8C759.2 80 651.2 32 521.6 32c-266.4 0-480 216-480 480s213.6 480 480 480c276 0 460.8-194.4 460.8-470.4 0-31.2-2.4-55.2-7.2-79.2H521.6z" fill="#2CA94F"/><path d="M850.4 867.2c84-84 132-204 132-343.2 0-31.2-2.4-55.2-7.2-79.2H521.6V608h271.2c-7.2 40.8-33.6 105.6-91.2 151.2l148.8 108z" fill="#3E82F7"/><path d="M99.2 740c-36-67.2-57.6-144-57.6-228 0-72 14.4-139.2 43.2-199.2l153.6 108c-9.6 28.8-14.4 60-14.4 91.2 0 40.8 7.2 81.6 24 117.6L99.2 740z" fill="#FCBD00"/><path d="M84.8 312.8C159.2 147.2 327.2 32 521.6 32c129.6 0 237.6 48 321.6 124.8L713.6 281.6c-36-33.6-98.4-74.4-192-74.4C387.2 207.2 272 300.8 236 428L84.8 312.8z" fill="#ED422C"/></svg>