<?xml version="1.0"?>
<svg xmlns="http://www.w3.org/2000/svg" xmlns:xlink="http://www.w3.org/1999/xlink" data-noselect="" viewBox="0 0 800 600" width="1600" height="1200" preserveAspectRatio="none" version="1.1" class="svg-canvas"><defs/> <g id="background" data-noselect=""><rect fill="#ffffff" width="800" height="600" data-noselect=""/> <!----></g> <g id="shape_M1BYNGcET4" transform="translate(184.47084548104996,216.73690962099002) rotate(0,180.05247813411,48.100490792014) scale(1,1)" filter="" style="opacity: 1;"><g><svg xmlns="http://www.w3.org/2000/svg" xmlns:xlink="http://www.w3.org/1999/xlink" version="1.1" id="&#x56FE;&#x5C42;_1" x="0px" y="0px" width="360.10495626822" height="96.200981584029" viewBox="3.8547351360321045 73.40999603271484 194.12525939941406 51.85999298095703" style="enable-background:new 0 0 200 200;" xml:space="preserve" class="style-removed" preserveAspectRatio="none" data-parent="shape_M1BYNGcET4">

<g>
	<g>
		<circle cx="103.6" cy="79.88" r="6.47" fill="#FF0000" stroke-width="0"/>
		<path d="M110.82,99.75c0,0,3.56-2.53,6.64-1.15s5.74-0.53,5.74-0.53s-2.8,2.97-5.7,1.81C114.48,98.68,110.82,99.75,110.82,99.75z" fill="#000000" stroke-width="0"/>
	</g>
	<path d="M62.66,123.74c-11.16,0.01-22.31,0.02-33.47,0.03c-3.43,0-6.87,0-10.3,0.01c0.87-0.26,1.74-0.54,2.6-0.84   c9.17-3.26,14.7-12.54,24.04-15.45c4.01-1.25,8.82-1.38,12.48,0.93c1.77,1.12,2.6,2.76,4,4.21c1.86,1.92,3.46,0.97,5.14-0.61   c6.55-6.14,10.02-14.89,16.43-21.14c3.39-3.31,8.15-6.76,13.15-6.37c4.37,0.34,7.04,3.37,8.6,7.14   c2.44,5.89,3.59,15.62,11.95,14.97c4.95-0.39,7.32-4.53,9.31-8.53c1.94-3.91,4.09-6.82,8.62-7.63c4.22-0.76,8.65,0.22,12.39,2.24   c4.51,2.43,7.18,6.3,10.81,9.75c4.18,3.97,5.52,5.62,10.83,7.17c5.89,1.72,12.1,0.53,18.11,0.99c1.43,0.11,2.89,0.54,4.33,1.17h6.3   c-1.95-1.33-3.95-2.39-6.06-2.92c-5.19-1.28-10.58-0.48-15.86-0.69c-5.37-0.21-8.88-0.86-12.95-4.42c-3.81-3.33-6.44-5.98-9.92-9.6   c-3.13-3.25-7.24-5.6-11.69-6.43c-3.9-0.72-8.68-0.42-11.67,2.47c-3.27,3.16-3.85,8.16-7.22,11.27c-2.7,2.49-7.36,3.35-10.57,1.24   c-2.77-1.81-3.87-6.03-4.91-8.96c-1.06-2.98-1.94-6.63-4.14-9.02c-3.5-3.78-8.75-3.6-13.02-1.39c-8.55,4.43-12.98,13.6-18.57,20.96   c-1.75,2.3-5.87,8.77-9.14,5.78c-1.56-1.43-2.4-3.29-4.26-4.47c-1.83-1.15-4-1.69-6.15-1.79c-11.87-0.57-18.04,10.71-27.73,15.24   c-5.72,2.68-12.38,3.86-18.67,4.6c-0.21,0-0.4,0.02-0.56,0.06c-0.18,0.02-0.36,0.04-0.53,0.06c0,0-0.01,0-0.02,0.01   c-0.79,0.31-0.56,1.49,0.29,1.49c8.52-0.01,30.37-0.03,57.23-0.05L62.66,123.74z" fill="#000000" stroke-width="0"/>
</g>
</svg></g></g><g id="shape_hIVLiPFuad" transform="translate(213.06915451894997,54.355393586009995) rotate(0,239.95999999999998,270.88) scale(1,1)" filter="" style="opacity: 1;"><g><svg xmlns="http://www.w3.org/2000/svg" xmlns:xlink="http://www.w3.org/1999/xlink" version="1.1" width="634.8399999999999" height="541.76" viewBox="0 0 634.8399999999999 541.76"><g data-width="324.43939453124995" transform="translate(77.46, 0)"><path d="M24.05-57.26L24.05-57.26L25.42-57.26Q29.12-57.26 37.60-54.77L37.60-54.77L38.50-54.77Q39.94-54.77 42.89-55.45L42.89-55.45Q45.92-55.45 47.05-50.83L47.05-50.83Q47.28-49.09 47.28-46.90L47.28-46.90L47.28-46.22Q47.28-38.65 44.71-38.65L44.71-38.65Q44.71-38.43 44.48-38.43L44.48-38.43L44.03-38.43Q41.68-38.43 39.41-44.86L39.41-44.86Q34.87-51.51 26.55-51.51L26.55-51.51L24.51-51.51Q16.94-51.51 14.60-44.18L14.60-44.18L14.60-43.27Q14.60-35.78 33.21-33.36L33.21-33.36Q49.32-29.58 49.32-17.70L49.32-17.70L49.32-17.25Q49.32-6.51 35.55-1.36L35.55-1.36Q30.94-0.23 27.69-0.23L27.69-0.23L27.46-0.23Q23.15-0.23 14.60-2.72L14.60-2.72L12.33-2.72Q11.50-2.72 8.17-2.04L8.17-2.04Q5.30-2.04 4.46-6.66L4.46-6.66Q4.24-7.64 4.24-10.14L4.24-10.14L4.24-12.63Q4.24-20.27 7.49-20.27L7.49-20.27L7.94-20.27Q9.38-19.89 12.78-12.18L12.78-12.18Q17.70-5.98 25.42-5.98L25.42-5.98L26.78-5.98Q35.70-5.98 38.73-13.09L38.73-13.09L38.73-15.66Q38.73-22.54 17.55-25.49L17.55-25.49Q3.78-30.03 3.78-40.70L3.78-40.70Q3.78-49.55 14.37-55.22L14.37-55.22Q18.99-57.26 24.05-57.26Z" transform="translate(0 299.38) " fill="rgb(0, 0, 0)" stroke="rgb(0, 0, 0)" stroke-width="0.129" data-glyph-w="52.951171875" data-glyph-h="75.64453125" data-glyph-ascender="66.5671875" data-glyph-descender="-9.07734375"/><path d="M7.79-56.58L7.79-56.58L19.74-56.58Q27.16-56.58 27.16-53.56L27.16-53.56Q27.16-53.10 23.68-48.49L23.68-48.49L23.68-46.45Q23.90-44.18 32.22-32.45L32.22-32.45Q33.66-31.24 34.49-31.24L34.49-31.24L34.95-31.24Q37.90-31.24 44.40-43.72L44.40-43.72Q45.76-45.31 45.76-47.13L45.76-47.13L45.76-47.81Q45.76-48.87 42.06-53.10L42.06-53.10L42.06-53.78Q42.06-56.58 49.24-56.58L49.24-56.58L55.67-56.58Q59.99-56.58 59.99-53.78L59.99-53.78Q59.99-52.50 53.78-47.58L53.78-47.58Q37.97-22.92 37.97-19.29L37.97-19.29L37.97-11.95Q37.97-7.19 45.99-5.75L45.99-5.75Q47.35-4.16 47.35-3.71L47.35-3.71Q47.35-0.91 40.02-0.91L40.02-0.91L24.13-0.91Q17.02-0.91 17.02-3.71L17.02-3.71Q17.02-5.75 23.00-7.11L23.00-7.11Q25.95-9.68 25.95-11.95L25.95-11.95L25.95-18.61Q25.95-23.37 16.34-37.22L16.34-37.22Q12.56-44.40 8.25-49.02L8.25-49.02Q5.52-50.91 3.71-53.10L3.71-53.10L3.71-53.78Q3.71-56.36 7.79-56.58Z" transform="translate(52.951171875 299.38) " fill="rgb(0, 0, 0)" stroke="rgb(0, 0, 0)" stroke-width="0.129" data-glyph-w="63.61705078125" data-glyph-h="75.64453125" data-glyph-ascender="66.5671875" data-glyph-descender="-9.07734375"/><path d="M24.05-57.26L24.05-57.26L25.42-57.26Q29.12-57.26 37.60-54.77L37.60-54.77L38.50-54.77Q39.94-54.77 42.89-55.45L42.89-55.45Q45.92-55.45 47.05-50.83L47.05-50.83Q47.28-49.09 47.28-46.90L47.28-46.90L47.28-46.22Q47.28-38.65 44.71-38.65L44.71-38.65Q44.71-38.43 44.48-38.43L44.48-38.43L44.03-38.43Q41.68-38.43 39.41-44.86L39.41-44.86Q34.87-51.51 26.55-51.51L26.55-51.51L24.51-51.51Q16.94-51.51 14.60-44.18L14.60-44.18L14.60-43.27Q14.60-35.78 33.21-33.36L33.21-33.36Q49.32-29.58 49.32-17.70L49.32-17.70L49.32-17.25Q49.32-6.51 35.55-1.36L35.55-1.36Q30.94-0.23 27.69-0.23L27.69-0.23L27.46-0.23Q23.15-0.23 14.60-2.72L14.60-2.72L12.33-2.72Q11.50-2.72 8.17-2.04L8.17-2.04Q5.30-2.04 4.46-6.66L4.46-6.66Q4.24-7.64 4.24-10.14L4.24-10.14L4.24-12.63Q4.24-20.27 7.49-20.27L7.49-20.27L7.94-20.27Q9.38-19.89 12.78-12.18L12.78-12.18Q17.70-5.98 25.42-5.98L25.42-5.98L26.78-5.98Q35.70-5.98 38.73-13.09L38.73-13.09L38.73-15.66Q38.73-22.54 17.55-25.49L17.55-25.49Q3.78-30.03 3.78-40.70L3.78-40.70Q3.78-49.55 14.37-55.22L14.37-55.22Q18.99-57.26 24.05-57.26Z" transform="translate(116.56822265625 299.38) " fill="rgb(0, 0, 0)" stroke="rgb(0, 0, 0)" stroke-width="0.129" data-glyph-w="52.951171875" data-glyph-h="75.64453125" data-glyph-ascender="66.5671875" data-glyph-descender="-9.07734375"/><path d="M37.22-60.36L37.22-60.36Q44.10-57.41 46.90-51.51L46.90-51.51L46.90-50.45Q46.90-49.70 43.34-45.76L43.34-45.76L43.34-44.71L44.40-44.71Q48.26-44.71 56.13-47.35L56.13-47.35Q59.91-47.35 64.30-41.60L64.30-41.60L64.30-40.55Q63.01-38.28 60.67-37.37L60.67-37.37Q53.56-37.90 48.49-37.90L48.49-37.90L45.92-37.90L43.34-37.37L43.34-30.94L43.87-28.29L46.45-28.29Q46.90-28.29 50.53-29.35L50.53-29.35Q57.11-26.63 57.11-23.60L57.11-23.60Q57.11-22.01 53.56-19.97L53.56-19.97L50.98-20.50L44.40-20.50Q43.34-20.35 43.34-19.44L43.34-19.44L43.34-11.12Q43.50-10.06 44.40-10.06L44.40-10.06Q53.33-10.06 66.79-12.63L66.79-12.63L67.32-12.63Q74.89-10.36 77.54-5.37L77.54-5.37Q75.80-0.68 71.94-0.68L71.94-0.68Q64.83-2.19 50.98-2.19L50.98-2.19Q35.17-2.19 6.13 0.91L6.13 0.91Q3.93 0.68 0-5.37L0-5.37L0-5.90Q0-6.88 1.51-6.88L1.51-6.88Q6.88-6.88 32.15-9.00L32.15-9.00L32.15-17.32Q32.15-18.38 31.09-18.38L31.09-18.38Q29.50-18.38 23.98-17.32L23.98-17.32Q21.10-17.32 17.32-24.13L17.32-24.13Q21.26-25.57 31.62-26.70L31.62-26.70L31.62-35.33L31.09-35.33Q27.84-35.33 17.85-33.74L17.85-33.74Q11.72-39.18 11.72-41.60L11.72-41.60Q12.71-42.13 13.24-42.13L13.24-42.13Q32.15-42.13 32.15-45.24L32.15-45.24Q34.72-51.21 34.72-54.09L34.72-54.09L32.15-57.26Q32.15-58.02 37.22-60.36Z" transform="translate(169.51939453125 299.38) " fill="rgb(0, 0, 0)" stroke="rgb(0, 0, 0)" stroke-width="0.129" data-glyph-w="77.46" data-glyph-h="75.64453125" data-glyph-ascender="66.5671875" data-glyph-descender="-9.07734375"/><path d="M64.37-58.85L64.37-58.85Q75.64-57.19 75.64-54.01L75.64-54.01L75.64-53.78Q75.64-50.83 70.80-50.08L70.80-50.08Q69.90-50.08 66.72-50.30L66.72-50.30L42.97-48.94L42.97-48.26Q43.87-48.26 45.54-45.76L45.54-45.76Q44.40-43.80 44.40-43.19L44.40-43.19L44.40-42.97Q45.99-42.97 56.58-43.87L56.58-43.87Q60.06-43.87 64.60-39.03L64.60-39.03Q63.01-33.13 63.01-29.43L63.01-29.43L63.92-19.06Q63.92-16.64 60.21-13.09L60.21-13.09Q70.12-8.32 70.12-4.77L70.12-4.77Q70.58-4.77 71.26-2.04L71.26-2.04Q69.52 3.03 64.37 3.03L64.37 3.03Q58.78 1.51 48.26-8.93L48.26-8.93Q47.81-9.99 42.51-12.63L42.51-12.63Q39.11-6.43 29.65-3.18L29.65-3.18Q13.84 1.44 2.50 1.44L2.50 1.44Q2.50 1.66 1.59 1.66L1.59 1.66Q0 1.36 0 0.98L0 0.98Q0.68-0.15 13.77-3.18L13.77-3.18Q31.70-8.55 31.70-20.88L31.70-20.88Q32.22-25.95 32.22-30.11L32.22-30.11L31.24-33.06L31.24-33.28Q31.24-34.04 35.40-34.72L35.40-34.72Q44.86-32.91 44.86-30.56L44.86-30.56Q44.18-17.78 44.18-16.04L44.18-16.04L44.40-16.04L51.51-15.36Q51.97-16.64 51.97-19.29L51.97-19.29Q51.97-23.07 51.74-33.06L51.74-33.06Q51.21-36.54 49.47-36.54L49.47-36.54L49.17-36.54Q34.27-36.54 25.04-35.40L25.04-35.40Q25.04-34.80 25.49-32.83L25.49-32.83Q24.81-29.80 24.81-27.53L24.81-27.53L24.81-15.13Q24.81-14.90 25.04-14.90L25.04-14.90Q23.07-10.82 20.20-10.82L20.20-10.82Q17.85-10.82 14.45-16.57L14.45-16.57L13.99-18.84Q14.98-22.39 15.20-26.17L15.20-26.17Q14.68-26.93 14.68-27.31L14.68-27.31L15.20-28.29Q15.20-36.46 14.22-40.47L14.22-40.47Q14.98-42.06 16.11-42.06L16.11-42.06Q16.41-42.06 19.52-40.70L19.52-40.70Q24.13-42.06 30.11-42.06L30.11-42.06Q31.47-45.61 31.47-46.90L31.47-46.90Q30.94-48.26 29.88-48.26L29.88-48.26Q12.48-47.58 9.68-46.90L9.68-46.90Q6.58-46.90 2.27-54.24L2.27-54.24L2.27-55.14Q2.42-55.83 4.16-55.83L4.16-55.83Q24.74-55.83 64.37-58.85Z" transform="translate(246.97939453124997 299.38) " fill="rgb(0, 0, 0)" stroke="rgb(0, 0, 0)" stroke-width="0.129" data-glyph-w="77.46" data-glyph-h="75.64453125" data-glyph-ascender="66.5671875" data-glyph-descender="-9.07734375"/></g></svg></g></g><g id="shape_n44VMEIqUq" transform="translate(271.31440233236,278.48281694151) rotate(0,93.5,92.2802734375) scale(1,1)" filter="" style="opacity: 1;"><g><svg xmlns="http://www.w3.org/2000/svg" xmlns:xlink="http://www.w3.org/1999/xlink" version="1.1" width="237" height="184.560546875" viewBox="0 0 237 184.560546875"><g data-width="136.4392578125" transform="translate(25, 0)"><path d="M4.76-13.15L4.76-13.15Q4.76-12.41 5.16-11.93Q5.55-11.44 6.21-11.09Q6.87-10.74 7.73-10.48Q8.58-10.22 9.48-9.95L9.48-9.95Q10.64-9.59 11.65-9.18Q12.65-8.76 13.38-8.17Q14.11-7.58 14.53-6.76Q14.95-5.94 14.95-4.80L14.95-4.80Q14.95-3.58 14.45-2.61Q13.95-1.64 13.05-0.96Q12.15-0.28 10.88 0.08Q9.61 0.44 8.06 0.44L8.06 0.44Q6.90 0.44 5.85 0.24Q4.81 0.05 3.95-0.30Q3.09-0.65 2.44-1.12Q1.79-1.59 1.43-2.15L1.43-2.15Q1.33-2.33 1.33-2.56L1.33-2.56Q1.33-2.78 1.43-3.02Q1.53-3.25 1.68-3.44Q1.83-3.63 2.02-3.75Q2.21-3.87 2.39-3.87L2.39-3.87Q2.60-3.87 2.81-3.74Q3.03-3.60 3.23-3.47L3.23-3.47Q3.63-3.21 4.13-2.96Q4.64-2.71 5.24-2.51Q5.85-2.32 6.55-2.20Q7.25-2.08 8.03-2.08L8.03-2.08Q8.81-2.08 9.48-2.22Q10.16-2.37 10.65-2.67Q11.15-2.97 11.43-3.42Q11.71-3.87 11.71-4.49L11.71-4.49Q11.71-5.30 11.30-5.81Q10.90-6.32 10.24-6.68Q9.58-7.04 8.74-7.29Q7.90-7.54 7.02-7.82L7.02-7.82Q6.69-7.93 6.24-8.09Q5.79-8.25 5.33-8.44Q4.87-8.63 4.46-8.83Q4.05-9.03 3.80-9.22L3.80-9.22Q1.56-10.33 1.56-12.98L1.56-12.98Q1.56-14.15 2.07-15.07Q2.58-15.99 3.47-16.63Q4.36-17.27 5.57-17.61Q6.77-17.94 8.19-17.94L8.19-17.94Q10.07-17.94 11.55-17.40Q13.02-16.86 14.10-15.77L14.10-15.77Q14.26-15.60 14.32-15.41Q14.38-15.22 14.38-15.00L14.38-15.00Q14.38-14.79 14.32-14.58Q14.26-14.36 14.12-14.17Q13.99-13.99 13.78-13.87Q13.56-13.76 13.26-13.76L13.26-13.76Q12.92-13.76 12.49-14.12L12.49-14.12Q12.16-14.36 11.72-14.59Q11.28-14.83 10.75-15.01Q10.23-15.20 9.63-15.31Q9.03-15.43 8.37-15.43L8.37-15.43Q7.73-15.43 7.09-15.30Q6.45-15.17 5.93-14.90Q5.41-14.62 5.08-14.19Q4.76-13.76 4.76-13.15Z" transform="translate(0 99.7802734375) " fill="rgb(0, 0, 0)" stroke="rgb(0, 0, 0)" stroke-width="0.042" data-glyph-w="16.10107421875" data-glyph-h="33.02001953125" data-glyph-ascender="24.7802734375" data-glyph-descender="-8.23974609375"/><path d="M15.17-15.72L9.78-7.15L9.78-1.57Q9.78-1.18 9.64-0.89Q9.50-0.59 9.27-0.38Q9.03-0.18 8.73-0.09Q8.44 0.01 8.13 0.01L8.13 0.01Q7.82 0.01 7.53-0.09Q7.24-0.18 7.01-0.38Q6.77-0.59 6.63-0.89Q6.49-1.18 6.49-1.57L6.49-1.57L6.49-7.09L1.20-15.52Q1.10-15.69 1.06-15.84Q1.03-16.00 1.01-16.15L1.01-16.15Q1.01-16.44 1.16-16.70Q1.31-16.96 1.55-17.14Q1.79-17.32 2.10-17.43Q2.40-17.53 2.72-17.53L2.72-17.53Q3.14-17.53 3.50-17.33Q3.87-17.13 4.08-16.67L4.08-16.67L8.29-9.41L8.34-9.41L12.59-16.74Q12.78-17.16 13.12-17.35Q13.46-17.53 13.85-17.53L13.85-17.53Q14.14-17.53 14.40-17.44Q14.67-17.36 14.88-17.20Q15.09-17.04 15.22-16.82Q15.34-16.60 15.34-16.33L15.34-16.33Q15.34-16.20 15.31-16.04Q15.27-15.88 15.17-15.72L15.17-15.72Z" transform="translate(16.10107421875 99.7802734375) " fill="rgb(0, 0, 0)" stroke="rgb(0, 0, 0)" stroke-width="0.042" data-glyph-w="16.24755859375" data-glyph-h="33.02001953125" data-glyph-ascender="24.7802734375" data-glyph-descender="-8.23974609375"/><path d="M4.76-13.15L4.76-13.15Q4.76-12.41 5.16-11.93Q5.55-11.44 6.21-11.09Q6.87-10.74 7.73-10.48Q8.58-10.22 9.48-9.95L9.48-9.95Q10.64-9.59 11.65-9.18Q12.65-8.76 13.38-8.17Q14.11-7.58 14.53-6.76Q14.95-5.94 14.95-4.80L14.95-4.80Q14.95-3.58 14.45-2.61Q13.95-1.64 13.05-0.96Q12.15-0.28 10.88 0.08Q9.61 0.44 8.06 0.44L8.06 0.44Q6.90 0.44 5.85 0.24Q4.81 0.05 3.95-0.30Q3.09-0.65 2.44-1.12Q1.79-1.59 1.43-2.15L1.43-2.15Q1.33-2.33 1.33-2.56L1.33-2.56Q1.33-2.78 1.43-3.02Q1.53-3.25 1.68-3.44Q1.83-3.63 2.02-3.75Q2.21-3.87 2.39-3.87L2.39-3.87Q2.60-3.87 2.81-3.74Q3.03-3.60 3.23-3.47L3.23-3.47Q3.63-3.21 4.13-2.96Q4.64-2.71 5.24-2.51Q5.85-2.32 6.55-2.20Q7.25-2.08 8.03-2.08L8.03-2.08Q8.81-2.08 9.48-2.22Q10.16-2.37 10.65-2.67Q11.15-2.97 11.43-3.42Q11.71-3.87 11.71-4.49L11.71-4.49Q11.71-5.30 11.30-5.81Q10.90-6.32 10.24-6.68Q9.58-7.04 8.74-7.29Q7.90-7.54 7.02-7.82L7.02-7.82Q6.69-7.93 6.24-8.09Q5.79-8.25 5.33-8.44Q4.87-8.63 4.46-8.83Q4.05-9.03 3.80-9.22L3.80-9.22Q1.56-10.33 1.56-12.98L1.56-12.98Q1.56-14.15 2.07-15.07Q2.58-15.99 3.47-16.63Q4.36-17.27 5.57-17.61Q6.77-17.94 8.19-17.94L8.19-17.94Q10.07-17.94 11.55-17.40Q13.02-16.86 14.10-15.77L14.10-15.77Q14.26-15.60 14.32-15.41Q14.38-15.22 14.38-15.00L14.38-15.00Q14.38-14.79 14.32-14.58Q14.26-14.36 14.12-14.17Q13.99-13.99 13.78-13.87Q13.56-13.76 13.26-13.76L13.26-13.76Q12.92-13.76 12.49-14.12L12.49-14.12Q12.16-14.36 11.72-14.59Q11.28-14.83 10.75-15.01Q10.23-15.20 9.63-15.31Q9.03-15.43 8.37-15.43L8.37-15.43Q7.73-15.43 7.09-15.30Q6.45-15.17 5.93-14.90Q5.41-14.62 5.08-14.19Q4.76-13.76 4.76-13.15Z" transform="translate(32.3486328125 99.7802734375) " fill="rgb(0, 0, 0)" stroke="rgb(0, 0, 0)" stroke-width="0.042" data-glyph-w="16.10107421875" data-glyph-h="33.02001953125" data-glyph-ascender="24.7802734375" data-glyph-descender="-8.23974609375"/><path d="" transform="translate(48.44970703125 99.7802734375) " fill="rgb(0, 0, 0)" stroke="rgb(0, 0, 0)" stroke-width="0.042" data-glyph-w="9.95" data-glyph-h="25" data-glyph-ascender="22" data-glyph-descender="-3"/><path d="M13.21-10.39L13.21-15.95Q13.21-16.35 13.35-16.64Q13.49-16.93 13.72-17.13Q13.95-17.33 14.25-17.43Q14.54-17.53 14.86-17.53L14.86-17.53Q15.16-17.53 15.45-17.43Q15.75-17.33 15.98-17.14Q16.21-16.94 16.35-16.64Q16.49-16.35 16.49-15.95L16.49-15.95L16.49-1.60Q16.49-1.21 16.35-0.91Q16.21-0.61 15.98-0.42Q15.75-0.22 15.45-0.12Q15.15-0.02 14.84-0.02L14.84-0.02Q14.54-0.02 14.25-0.12Q13.95-0.22 13.72-0.42Q13.49-0.61 13.35-0.91Q13.21-1.21 13.21-1.60L13.21-1.60L13.21-7.80L5.40-7.80L5.40-1.60Q5.40-1.21 5.26-0.91Q5.11-0.61 4.88-0.42Q4.65-0.22 4.35-0.12Q4.05-0.02 3.75-0.02L3.75-0.02Q3.44-0.02 3.15-0.12Q2.86-0.22 2.62-0.42Q2.39-0.61 2.25-0.91Q2.11-1.21 2.11-1.60L2.11-1.60L2.11-15.95Q2.11-16.35 2.25-16.64Q2.39-16.93 2.62-17.13Q2.86-17.33 3.16-17.43Q3.45-17.53 3.76-17.53L3.76-17.53Q4.06-17.53 4.36-17.43Q4.65-17.33 4.88-17.14Q5.11-16.94 5.26-16.64Q5.40-16.35 5.40-15.95L5.40-15.95L5.40-10.39L13.21-10.39Z" transform="translate(58.39970703125 99.7802734375) " fill="rgb(0, 0, 0)" stroke="rgb(0, 0, 0)" stroke-width="0.042" data-glyph-w="18.603515625" data-glyph-h="33.02001953125" data-glyph-ascender="24.7802734375" data-glyph-descender="-8.23974609375"/><path d="M4.81-8.76L4.81-8.76Q4.81-7.30 5.10-6.06Q5.38-4.82 5.99-3.92Q6.60-3.03 7.54-2.52Q8.48-2.01 9.79-2.01L9.79-2.01Q11.10-2.01 12.04-2.52Q12.98-3.03 13.59-3.92Q14.20-4.82 14.49-6.06Q14.78-7.30 14.78-8.76L14.78-8.76Q14.78-10.22 14.50-11.46Q14.21-12.70 13.60-13.60Q12.99-14.50 12.04-15.01Q11.10-15.53 9.79-15.53L9.79-15.53Q8.48-15.53 7.54-15.01Q6.59-14.50 5.99-13.60Q5.38-12.70 5.10-11.46Q4.81-10.22 4.81-8.76ZM1.35-8.76L1.35-8.76Q1.35-10.82 1.90-12.51Q2.45-14.20 3.52-15.41Q4.59-16.61 6.16-17.28Q7.74-17.94 9.79-17.94L9.79-17.94Q11.85-17.94 13.43-17.28Q15.00-16.61 16.07-15.41Q17.14-14.20 17.68-12.51Q18.23-10.82 18.23-8.76L18.23-8.76Q18.23-6.71 17.68-5.03Q17.14-3.34 16.07-2.14Q15.00-0.93 13.43-0.26Q11.85 0.40 9.79 0.40L9.79 0.40Q7.74 0.40 6.16-0.26Q4.59-0.93 3.52-2.14Q2.45-3.34 1.90-5.03Q1.35-6.71 1.35-8.76Z" transform="translate(77.00322265625 99.7802734375) " fill="rgb(0, 0, 0)" stroke="rgb(0, 0, 0)" stroke-width="0.042" data-glyph-w="19.580078125" data-glyph-h="33.02001953125" data-glyph-ascender="24.7802734375" data-glyph-descender="-8.23974609375"/><path d="M12.18-3.98L12.26-3.98L17.20-15.17Q17.48-15.87 17.76-16.33Q18.04-16.78 18.36-17.06Q18.68-17.33 19.05-17.44Q19.42-17.55 19.90-17.55L19.90-17.55Q20.36-17.55 20.78-17.41Q21.20-17.26 21.53-16.94Q21.85-16.63 22.04-16.13Q22.23-15.63 22.23-14.92L22.23-14.92L22.23-1.42Q22.23-1.06 22.11-0.80Q22.00-0.54 21.80-0.36Q21.61-0.18 21.36-0.09Q21.11 0 20.85 0L20.85 0Q20.59 0 20.36-0.09Q20.12-0.18 19.92-0.36Q19.73-0.54 19.61-0.80Q19.49-1.06 19.49-1.42L19.49-1.42L19.49-14.40L14.09-1.99Q13.96-1.65 13.76-1.39Q13.56-1.14 13.31-0.96Q13.05-0.78 12.76-0.69Q12.48-0.60 12.18-0.60L12.18-0.60Q11.62-0.60 11.11-0.93Q10.61-1.27 10.35-1.99L10.35-1.99L4.96-14.33L4.96-1.42Q4.96-1.06 4.84-0.80Q4.72-0.54 4.53-0.36Q4.33-0.18 4.09-0.09Q3.85 0 3.59 0L3.59 0Q3.33 0 3.09-0.09Q2.84-0.18 2.66-0.36Q2.47-0.54 2.35-0.80Q2.23-1.06 2.23-1.42L2.23-1.42L2.23-14.92Q2.23-15.63 2.42-16.13Q2.61-16.63 2.94-16.94Q3.27-17.26 3.70-17.41Q4.13-17.55 4.60-17.55L4.60-17.55Q5.08-17.55 5.46-17.44Q5.83-17.32 6.16-17.05Q6.48-16.77 6.76-16.31Q7.04-15.84 7.32-15.15L7.32-15.15L12.18-3.98Z" transform="translate(96.58330078125 99.7802734375) " fill="rgb(0, 0, 0)" stroke="rgb(0, 0, 0)" stroke-width="0.042" data-glyph-w="24.4384765625" data-glyph-h="33.02001953125" data-glyph-ascender="24.7802734375" data-glyph-descender="-8.23974609375"/><path d="M12.88 0L3.77 0Q3.45 0 3.17-0.13Q2.88-0.26 2.66-0.47Q2.44-0.68 2.31-0.97Q2.17-1.26 2.17-1.57L2.17-1.57L2.17-15.98Q2.17-16.28 2.29-16.57Q2.40-16.86 2.62-17.08Q2.83-17.30 3.11-17.43Q3.39-17.55 3.72-17.55L3.72-17.55L12.61-17.55Q12.92-17.55 13.14-17.45Q13.37-17.35 13.52-17.18Q13.67-17.00 13.75-16.79Q13.82-16.58 13.82-16.35L13.82-16.35Q13.82-16.13 13.75-15.91Q13.67-15.69 13.52-15.52Q13.37-15.34 13.14-15.24Q12.92-15.14 12.61-15.14L12.61-15.14L5.36-15.14L5.36-10.19L12.15-10.19Q12.45-10.19 12.68-10.09Q12.92-9.99 13.07-9.81Q13.22-9.64 13.29-9.43Q13.37-9.22 13.37-8.98L13.37-8.98Q13.37-8.76 13.29-8.54Q13.21-8.33 13.06-8.15Q12.90-7.98 12.68-7.88Q12.45-7.78 12.15-7.78L12.15-7.78L5.36-7.78L5.36-2.42L12.88-2.42Q13.18-2.42 13.41-2.31Q13.64-2.21 13.79-2.04Q13.94-1.87 14.01-1.65Q14.09-1.44 14.09-1.21L14.09-1.21Q14.09-0.99 14.01-0.77Q13.94-0.55 13.79-0.38Q13.64-0.21 13.41-0.10Q13.18 0 12.88 0L12.88 0Z" transform="translate(121.02177734375 99.7802734375) " fill="rgb(0, 0, 0)" stroke="rgb(0, 0, 0)" stroke-width="0.042" data-glyph-w="15.41748046875" data-glyph-h="33.02001953125" data-glyph-ascender="24.7802734375" data-glyph-descender="-8.23974609375"/></g></svg></g></g></svg>
