<?xml version="1.0" standalone="no"?><!DOCTYPE svg PUBLIC "-//W3C//DTD SVG 1.1//EN" "http://www.w3.org/Graphics/SVG/1.1/DTD/svg11.dtd"><svg t="1627245853303" class="icon" viewBox="0 0 1024 1024" version="1.1" xmlns="http://www.w3.org/2000/svg" p-id="2034" xmlns:xlink="http://www.w3.org/1999/xlink" width="500" height="500"><defs><style type="text/css">@font-face { font-family: feedback-iconfont; src: url("//at.alicdn.com/t/font_1031158_1uhr8ri0pk5.eot?#iefix") format("embedded-opentype"), url("//at.alicdn.com/t/font_1031158_1uhr8ri0pk5.woff2") format("woff2"), url("//at.alicdn.com/t/font_1031158_1uhr8ri0pk5.woff") format("woff"), url("//at.alicdn.com/t/font_1031158_1uhr8ri0pk5.ttf") format("truetype"), url("//at.alicdn.com/t/font_1031158_1uhr8ri0pk5.svg#iconfont") format("svg"); }
</style></defs><path d="M1022.975566 511.999565C1022.463566 229.887805 793.087761 2.047998 510.976001 2.559998S0.512435 232.447802 1.024434 514.559563c0.512 282.11176 229.887805 509.951567 511.999565 509.439567 66.047944 0 132.095888-12.799989 193.023836-38.399968 78.335933-31.743973 147.455875-83.455929 200.703829-149.503873 75.263936-91.135923 116.223901-205.823825 116.223902-324.095724z m-339.967711 434.68763c-56.319952 18.431984-110.591906 30.719974-169.983856 30.719974-257.023782 0.512-465.919604-207.871823-466.431603-465.407604s208.383823-466.431604 465.919604-466.431604 466.431604 208.383823 466.431603 465.919604c0 110.591906-38.911967 217.599815-110.591906 302.079743-49.663958 58.87995-113.151904 104.959911-185.343842 133.119887z" fill="#FA4D23" p-id="2035"></path><path d="M503.296007 705.023401s-185.343842 2.559998-288.255755-92.671921l-7.679993 131.071888s612.35148 221.183812 617.471475-133.631886c0 0 12.799989-84.991928-208.383823-143.871878-65.023945-17.407985-126.975892-43.519963-185.343842-77.311934 0 0-54.271954-61.951947 100.351914-49.151959 182.783845 15.359987 278.015764 61.951947 278.015764 61.951948V285.695757s-416.767646-156.671867-578.559508 23.039981c0 0-53.759954 82.43193 2.559998 133.631886s169.983856 115.711902 318.975729 154.623869c-0.512-2.559998 192.511836 87.551926-49.151959 108.031908z" fill="#FA4D23" p-id="2036"></path></svg>